<mxfile host="app.diagrams.net" modified="2023-09-22T09:40:14.718Z" agent="Mozilla/5.0 (Windows NT 10.0; Win64; x64) AppleWebKit/537.36 (KHTML, like Gecko) Chrome/116.0.0.0 Safari/537.36" version="21.8.0" etag="K-Ct_5pbYwiGLCO5Pn34" type="github">
  <diagram name="Page-1" id="6mhvh1MC5EZBR5rGd0tF">
    <mxGraphModel>
      <root>
        <mxCell id="0" />
        <mxCell id="1" parent="0" />
      </root>
    </mxGraphModel>
  </diagram>
</mxfile>
